<?xml version="1.0" encoding="iso-8859-1"?>
<!-- Generator: Adobe Illustrator 19.0.0, SVG Export Plug-In . SVG Version: 6.00 Build 0)  -->
<svg version="1.1" id="Layer_1" xmlns="http://www.w3.org/2000/svg" xmlns:xlink="http://www.w3.org/1999/xlink" x="0px" y="0px"
	 viewBox="0 0 512 512" style="enable-background:new 0 0 512 512;" xml:space="preserve">
<path style="fill:#EAE2DC;" d="M503.155,134.213v315.86c0,10.015-8.116,18.119-18.119,18.119H26.964
	c-10.003,0-18.119-8.104-18.119-18.119v-315.86c0-10.015,8.116-18.119,18.119-18.119h64.736c9.826,0,18.791-5.615,23.073-14.45
	l21.079-43.397c4.294-8.835,13.259-14.45,23.073-14.45h194.138c9.826,0,18.791,5.615,23.085,14.45l21.068,43.397
	c4.294,8.835,13.259,14.45,23.085,14.45h64.736C495.04,116.093,503.155,124.198,503.155,134.213z"/>
<g>
	<path style="fill:#C98E3F;" d="M503.155,411.959v38.113c0,10.015-8.116,18.119-18.119,18.119H26.964
		c-10.003,0-18.119-8.104-18.119-18.119v-38.113H503.155z"/>
	<path style="fill:#C98E3F;" d="M503.155,134.213v91.242H8.846v-91.242c0-10.015,8.116-18.119,18.119-18.119h64.736
		c9.826,0,18.791-5.615,23.073-14.45l21.079-43.397c4.294-8.835,13.259-14.45,23.073-14.45h194.138
		c9.826,0,18.791,5.615,23.085,14.45l21.068,43.397c4.294,8.835,13.259,14.45,23.085,14.45h64.736
		C495.04,116.093,503.155,124.198,503.155,134.213z"/>
</g>
<path style="fill:#D6D0CC;" d="M45.413,450.073c0,10.015,8.116,18.119,18.119,18.119H26.964c-10.003,0-18.119-8.104-18.119-18.119
	v-315.86c0-10.015,8.116-18.119,18.119-18.119h36.567c-10.003,0-18.119,8.104-18.119,18.119V450.073z"/>
<path id="SVGCleanerId_0" style="fill:#B27B39;" d="M195.493,43.795c-9.814,0-18.779,5.615-23.073,14.45l-21.079,43.397
	c-4.282,8.835-13.247,14.45-23.073,14.45H91.701c9.826,0,18.791-5.615,23.073-14.45l21.079-43.397
	c4.294-8.835,13.259-14.45,23.073-14.45H195.493z"/>
<g>
	<path style="fill:#B27B39;" d="M63.532,468.192H26.964c-10.003,0-18.119-8.104-18.119-18.119V411.96h36.567v38.113
		C45.413,460.088,53.529,468.192,63.532,468.192z"/>
	<path style="fill:#B27B39;" d="M26.964,116.093h36.567c-10.003,0-18.119,8.104-18.119,18.119v91.242H8.846v-91.242
		C8.846,124.198,16.961,116.093,26.964,116.093z"/>
</g>
<g>
	<path id="SVGCleanerId_0_1_" style="fill:#B27B39;" d="M195.493,43.795c-9.814,0-18.779,5.615-23.073,14.45l-21.079,43.397
		c-4.282,8.835-13.247,14.45-23.073,14.45H91.701c9.826,0,18.791-5.615,23.073-14.45l21.079-43.397
		c4.294-8.835,13.259-14.45,23.073-14.45H195.493z"/>
</g>
<circle style="fill:#EAE2DC;" cx="255.996" cy="278.938" r="146.518"/>
<circle style="fill:#B1E9F9;" cx="255.996" cy="278.938" r="103.604"/>
<path style="fill:#7FD5E0;" d="M177.565,278.942c0-52.958,39.736-96.629,91.019-102.838c-4.125-0.499-8.323-0.762-12.583-0.762
	c-57.217,0-103.6,46.384-103.6,103.6s46.384,103.6,103.6,103.6c4.259,0,8.458-0.263,12.583-0.762
	C217.3,375.571,177.565,331.9,177.565,278.942z"/>
<path style="fill:#F97177;" d="M255.999,267.921c0-14.224,9.793-25.754,21.874-25.754c15.101,0,27.343,14.413,27.343,32.192
	c0,22.225-26.337,43.952-49.216,55.649c-22.879-11.697-49.216-33.425-49.216-55.649c0-17.78,12.242-32.192,27.343-32.192
	C246.206,242.167,255.999,253.697,255.999,267.921z"/>
<path style="fill:#B1E9F9;" d="M453.617,189.724h-21.702c-8.795,0-15.925-7.129-15.925-15.925v-4.298
	c0-8.795,7.129-15.925,15.925-15.925h21.702c8.795,0,15.925,7.129,15.925,15.925v4.298
	C469.542,182.595,462.412,189.724,453.617,189.724z"/>
<g>
	<rect x="430.718" y="71.247" style="fill:#D6D0CC;" width="44.848" height="44.848"/>
	<polygon style="fill:#D6D0CC;" points="81.852,87.442 37.003,87.442 36.444,116.092 81.293,116.092 	"/>
</g>
<path d="M255.999,243.653c-5.575-6.372-13.322-10.329-21.873-10.329c-19.955,0-36.19,18.41-36.19,41.039
	c0,12.582,6.24,25.351,18.546,37.953c9.34,9.565,21.944,18.648,35.491,25.572c1.265,0.646,2.646,0.97,4.027,0.97
	c1.381,0,2.763-0.323,4.027-0.97c13.545-6.925,26.15-16.007,35.492-25.572c12.306-12.603,18.546-25.372,18.546-37.953
	c0-22.629-16.235-41.039-36.19-41.039C269.322,233.325,261.575,237.281,255.999,243.653z M296.37,274.364
	c0,16.15-20.224,34.395-40.37,45.62c-20.146-11.225-40.369-29.47-40.369-45.62c0-12.873,8.297-23.345,18.496-23.345
	c7.061,0,13.026,7.742,13.026,16.907c0,4.886,3.961,8.847,8.847,8.847c4.887,0,8.847-3.961,8.847-8.847
	c0-9.165,5.966-16.907,13.027-16.907C288.073,251.019,296.37,261.491,296.37,274.364z"/>
<path d="M333.02,223.742c2.85,3.969,8.38,4.874,12.347,2.025c3.968-2.85,4.875-8.377,2.025-12.347
	c-21.099-29.38-55.265-46.921-91.393-46.921c-62.003,0-112.447,50.444-112.447,112.447s50.444,112.447,112.447,112.447
	s112.447-50.444,112.447-112.447c0-12.198-1.943-24.199-5.776-35.67c-1.549-4.633-6.562-7.137-11.194-5.587
	c-4.635,1.549-7.135,6.561-5.587,11.196c3.227,9.659,4.865,19.772,4.865,30.061c0,52.247-42.506,94.753-94.753,94.753
	c-52.247,0-94.753-42.507-94.753-94.753s42.507-94.753,94.753-94.753C286.444,184.193,315.236,198.978,333.02,223.742z"/>
<path d="M145.81,388.469c29.381,29.559,68.514,45.839,110.191,45.839c85.666,0,155.36-69.694,155.36-155.36
	s-69.694-155.361-155.36-155.361S100.64,193.281,100.64,278.948c0,29.836,8.481,58.819,24.529,83.819
	c2.639,4.112,8.113,5.307,12.224,2.666c4.112-2.639,5.306-8.112,2.666-12.224c-14.213-22.142-21.725-47.821-21.725-74.26
	c0-75.909,61.757-137.667,137.666-137.667s137.666,61.757,137.666,137.667s-61.757,137.666-137.666,137.666
	c-36.93,0-71.605-14.425-97.641-40.618c-3.444-3.466-9.045-3.482-12.511-0.038C142.382,379.401,142.365,385.003,145.81,388.469z"/>
<path d="M354.818,411.968c0,4.886,3.96,8.847,8.847,8.847h62.99c4.887,0,8.847-3.961,8.847-8.847c0-4.886-3.96-8.847-8.847-8.847
	h-62.99C358.778,403.122,354.818,407.083,354.818,411.968z"/>
<path d="M512,134.211c0-14.868-12.096-26.962-26.962-26.962h-0.623V71.246c0-4.886-3.96-8.847-8.847-8.847h-44.851
	c-4.887,0-8.847,3.961-8.847,8.847v36.002h-1.575c-6.391,0-12.324-3.715-15.117-9.464l-21.077-43.402
	c-5.73-11.802-17.912-19.428-31.033-19.428H158.932c-13.119,0-25.301,7.626-31.033,19.428l-21.077,43.403
	c-2.792,5.749-8.725,9.463-15.117,9.463H90.14V87.446c0-4.886-3.961-8.847-8.847-8.847H36.444c-4.886,0-8.847,3.961-8.847,8.847
	v19.802h-0.635C12.096,107.248,0,119.344,0,134.211v315.871c0,14.868,12.096,26.962,26.962,26.962h70.191
	c4.886,0,8.847-3.961,8.847-8.847c0-4.886-3.961-8.847-8.847-8.847H26.962c-5.111,0-9.268-4.158-9.268-9.268v-29.267h131.507
	c4.886,0,8.847-3.961,8.847-8.847c0-4.886-3.961-8.847-8.847-8.847H17.694V234.306h73.121c4.886,0,8.847-3.961,8.847-8.847
	c0-4.886-3.961-8.847-8.847-8.847H17.694v-82.401c0-5.111,4.158-9.268,9.268-9.268h64.742c13.121,0,25.302-7.626,31.033-19.428
	l21.077-43.402c2.792-5.749,8.725-9.464,15.117-9.464h194.138c6.391,0,12.324,3.715,15.117,9.464l21.076,43.402
	c5.732,11.803,17.913,19.429,31.034,19.429h64.742c5.111,0,9.268,4.158,9.268,9.268v82.401h-73.128
	c-4.887,0-8.847,3.961-8.847,8.847s3.96,8.847,8.847,8.847h73.128v168.815h-36.982c-4.887,0-8.847,3.961-8.847,8.847
	c0,4.886,3.96,8.847,8.847,8.847h36.982v29.267c0,5.111-4.157,9.268-9.268,9.268H124.68c-4.886,0-8.847,3.961-8.847,8.847
	c0,4.886,3.961,8.847,8.847,8.847h360.358c14.868,0,26.962-12.096,26.962-26.962V134.211z M45.291,107.248V96.292h27.155v10.956
	H45.291z M439.565,107.248V80.093h27.155v27.155H439.565z"/>
<path d="M431.915,198.576h21.702c13.659,0,24.772-11.112,24.772-24.772v-4.298c0-13.66-11.113-24.772-24.772-24.772h-21.702
	c-13.659,0-24.772,11.112-24.772,24.772v4.298C407.143,187.464,418.256,198.576,431.915,198.576z M424.837,169.506
	c0-3.903,3.174-7.078,7.078-7.078h21.702c3.903,0,7.078,3.174,7.078,7.078v4.298c0,3.903-3.174,7.078-7.078,7.078h-21.702
	c-3.903,0-7.078-3.174-7.078-7.078V169.506z"/>
<path d="M73.006,339.29c-13.66,0-24.772,11.112-24.772,24.772s11.112,24.772,24.772,24.772s24.772-11.112,24.772-24.772
	S86.665,339.29,73.006,339.29z M73.006,371.139c-3.903,0-7.078-3.174-7.078-7.078c0-3.903,3.174-7.078,7.078-7.078
	s7.078,3.174,7.078,7.078C80.084,367.965,76.908,371.139,73.006,371.139z"/>
<g>
</g>
<g>
</g>
<g>
</g>
<g>
</g>
<g>
</g>
<g>
</g>
<g>
</g>
<g>
</g>
<g>
</g>
<g>
</g>
<g>
</g>
<g>
</g>
<g>
</g>
<g>
</g>
<g>
</g>
</svg>
