<?xml version="1.0" encoding="utf-8"?>
<!-- Generator: Adobe Illustrator 16.0.4, SVG Export Plug-In . SVG Version: 6.00 Build 0)  -->
<!DOCTYPE svg PUBLIC "-//W3C//DTD SVG 1.1//EN" "http://www.w3.org/Graphics/SVG/1.1/DTD/svg11.dtd">
<svg version="1.1" id="Layer_1" xmlns="http://www.w3.org/2000/svg" xmlns:xlink="http://www.w3.org/1999/xlink" x="0px" y="0px"
	 width="112px" height="112px" viewBox="0 0 112 112" enable-background="new 0 0 112 112" xml:space="preserve" fill="#088ac5">
<path d="M110.666,94.495L89.553,73.374c-1.861-1.856-5.221-1.681-8.596,0.075l-9.747-9.74c5.093-6.672,8.124-15.001,8.124-24.042
	C79.334,17.761,61.572,0,39.667,0S0,17.761,0,39.667s17.762,39.667,39.667,39.667c9.042,0,17.374-3.032,24.046-8.127l9.745,9.741
	c-1.755,3.384-1.937,6.743-0.079,8.601l21.116,21.121c2.665,2.664,8.456,1.199,12.917-3.268
	C111.874,102.947,113.334,97.16,110.666,94.495z M39.667,70C22.914,70,9.334,56.42,9.334,39.667S22.914,9.334,39.667,9.334
	C56.42,9.333,70,22.913,70,39.667S56.42,70,39.667,70z"/>
</svg>
